<svg version="1" xmlns="http://www.w3.org/2000/svg" width="1365.333" height="1365.333" viewBox="0 0 1024.000000 1024.000000"><path d="M504.4 240.3c-8 3.2-10.1 6.3-21.2 30.7-1.9 4.1-5 10.9-13.7 29.5-8.4 17.9-12.2 26-18.2 39-3.6 7.7-8 17.1-9.8 21-1.8 3.8-7.8 16.7-13.3 28.5-5.5 11.8-11.9 25.5-14.2 30.5-2.3 4.9-5.5 11.7-7 15-1.5 3.3-4.9 10.5-7.5 16-2.6 5.5-5.8 12.2-7 15-1.8 4-29.7 63.9-48 103-2.1 4.4-5.2 11.1-7 15-4.3 9.4-10 21.6-13.5 29.1-5.4 11.4-11.2 23.9-14 29.9-1.5 3.3-4.8 10.3-7.2 15.5-2.5 5.2-5.5 11.7-6.8 14.5-1.3 2.7-4.9 10.6-8.1 17.4-3.3 6.8-5.9 12.5-5.9 12.6 0 .2-2.9 6.5-6.5 14-3.6 7.6-6.5 13.8-6.5 14 0 .1-2.8 6-6.2 13.1-4.3 9.2-6.3 14.4-6.6 18.2-1.7 19.4 22 30.9 36.1 17.4 1.6-1.5 4.4-5.9 6.2-9.7 1.8-3.9 5.6-12 8.5-18 2.9-6.1 6.5-13.7 8-17 6.7-14.6 20.8-45 26.5-57 2.6-5.5 6-12.7 7.5-16 1.5-3.3 9.1-19.5 16.8-36 7.7-16.5 15-32.3 16.3-35 1.2-2.8 2.7-5.3 3.1-5.6.5-.3 25.5-.6 55.6-.6 53.2 0 54.8-.1 58.7-2 8.2-4.2 12.6-10.9 12.7-19.4 0-9.2-6.7-18.5-14.9-20.8-2.4-.7-20.2-1.1-48-1.1h-44.2l4.8-10.3c5.7-11.9 10-21.3 14.8-31.7 1.9-4.1 5-10.7 6.8-14.5 8.6-18.2 12-25.5 14.5-31 5-10.9 8.7-18.8 14.4-30.8 3.1-6.5 5.6-12 5.6-12.2 0-.2 2.2-5 4.9-10.7 8.7-18.3 14.2-30 20.1-42.8 3.2-6.9 7.6-16.3 9.7-21 2.2-4.7 5.5-11.8 7.3-15.8 1.9-3.9 3.7-7.2 4-7.2.4 0 1.9 2.8 3.5 6.2 4.8 10.6 10.5 22.8 16.1 34.6 3 6.3 5.4 11.5 5.4 11.7 0 .1 2.9 6.4 6.5 14 3.6 7.5 6.5 13.8 6.5 13.9 0 .2 3.2 7 7 15 3.9 8.1 7 14.8 7 15 0 .2 2.6 5.9 5.9 12.7 3.2 6.8 8.4 18 11.6 24.9 3.2 6.9 8.4 18.1 11.6 24.9 3.3 6.8 5.9 12.5 5.9 12.6 0 .2 3 6.5 6.6 14.1 3.6 7.7 8.7 18.6 11.4 24.4 2.6 5.8 6.4 14 8.5 18.3l3.7 7.9-2.7 6c-1.5 3.4-5 10.9-7.7 16.7-5.3 11.3-9.6 20.3-15.4 32.8-2 4.3-5.2 11.2-7.1 15.3-8.4 17.7-11.7 24.8-14 30-2.9 6.3-14.6 31.5-20.5 44-2.2 4.7-5.3 11.2-6.8 14.5-1.5 3.3-5.8 12.5-9.5 20.5-6 12.8-6.8 15.2-6.8 20.5-.1 13.3 10.3 22.5 23.6 21.1 10.9-1.1 14-4.8 25.7-30.1 4.6-9.9 11.1-24 14.6-31.3 3.5-7.4 6.4-13.5 6.4-13.7 0-.2 2.7-6.1 6.1-13.2 3.3-7 8.3-17.5 10.9-23.3 4.8-10.6 9.2-19.8 17-36.5 2.3-5 5.5-11.9 7.1-15.4 1.6-3.5 3.1-6.2 3.3-6 .2.2 2.4 4.9 4.9 10.4 2.5 5.5 6.5 14.3 9 19.5 4.9 10.4 11.1 23.6 14.7 31.5 1.3 2.7 5.2 11 8.7 18.4 3.4 7.3 6.3 13.5 6.3 13.7 0 .2 2.7 6 6 13 3.3 6.9 6 12.7 6 12.9 0 .1 2.8 6.1 6.1 13.1 3.4 7.1 7.8 16.5 9.9 20.9 2.1 4.4 5.1 9.2 6.6 10.7 14.3 13.5 38.2 1.9 36.1-17.5-.5-4.9-1.9-8.3-11.4-28.7-2.2-4.7-8.9-18.9-14.8-31.5-5.9-12.7-12.2-26.3-14.1-30.2-4.6-9.9-9-19.3-16.4-35.3-3.4-7.4-8.9-19.1-12.1-25.9-3.3-6.8-5.9-12.5-5.9-12.7 0-.1-3.4-7.4-7.6-16.1-4.2-8.7-7.6-16.7-7.6-17.8 0-1.1 2.3-6.8 5.1-12.8 9.8-20.7 15.1-31.9 15.1-32.2 0-.1 2.4-5.4 5.4-11.7 6-12.6 8-16.8 22.1-47.3 13.1-28.3 14.8-32 21.7-46.5 3.3-6.9 6.2-14.5 6.5-17 2-16.5-14.8-29-29.8-22.2-7.8 3.5-7.9 3.7-22.2 34.2-1.9 4.1-5.4 11.5-7.7 16.5-2.3 4.9-7 15.1-10.5 22.5-3.4 7.4-8.4 18-11 23.5-5.1 10.9-8.7 18.7-9 19.5-.9 3-10 21-10.6 21-.4 0-1.1-1-1.5-2.3-.4-1.2-3-7.2-5.9-13.2-2.9-6.1-6.4-13.7-8-17-1.5-3.3-4.2-9.2-6-13-12-25.5-14.5-30.8-14.5-31 0-.2-3.1-6.9-7-15-3.8-8.1-7-14.8-7-15 0-.2-3.1-6.9-7-15-3.8-8.1-7-14.8-7-15 0-.2-3.1-6.9-7-15-3.8-8.1-7-14.8-7-15 0-.4-5.2-11.4-15.1-32.4-3.3-6.8-5.9-12.5-5.9-12.6 0-.2-2.9-6.5-6.5-14-3.6-7.6-6.5-13.8-6.5-14 0-1-10.6-22.5-12.2-24.8-4.3-6-16.9-9.4-24.4-6.4z"/></svg>